<svg width="28" height="28" viewBox="0 0 28 28" fill="none" xmlns="http://www.w3.org/2000/svg">
<path d="M19.8333 12.8333H18.6666C18.3572 12.8333 18.0604 12.9562 17.8416 13.175C17.6228 13.3938 17.4999 13.6906 17.4999 14C17.4999 14.3094 17.6228 14.6062 17.8416 14.825C18.0604 15.0437 18.3572 15.1667 18.6666 15.1667H19.8333C20.1427 15.1667 20.4394 15.0437 20.6582 14.825C20.877 14.6062 20.9999 14.3094 20.9999 14C20.9999 13.6906 20.877 13.3938 20.6582 13.175C20.4394 12.9562 20.1427 12.8333 19.8333 12.8333ZM19.8333 17.5H18.6666C18.3572 17.5 18.0604 17.6229 17.8416 17.8417C17.6228 18.0605 17.4999 18.3572 17.4999 18.6667C17.4999 18.9761 17.6228 19.2728 17.8416 19.4916C18.0604 19.7104 18.3572 19.8333 18.6666 19.8333H19.8333C20.1427 19.8333 20.4394 19.7104 20.6582 19.4916C20.877 19.2728 20.9999 18.9761 20.9999 18.6667C20.9999 18.3572 20.877 18.0605 20.6582 17.8417C20.4394 17.6229 20.1427 17.5 19.8333 17.5ZM12.8333 10.5H19.8333C20.1427 10.5 20.4394 10.3771 20.6582 10.1583C20.877 9.9395 20.9999 9.64275 20.9999 9.33333C20.9999 9.02391 20.877 8.72717 20.6582 8.50838C20.4394 8.28958 20.1427 8.16667 19.8333 8.16667H12.8333C12.5238 8.16667 12.2271 8.28958 12.0083 8.50838C11.7895 8.72717 11.6666 9.02391 11.6666 9.33333C11.6666 9.64275 11.7895 9.9395 12.0083 10.1583C12.2271 10.3771 12.5238 10.5 12.8333 10.5ZM24.4999 3.5H8.16658C7.85717 3.5 7.56042 3.62292 7.34163 3.84171C7.12284 4.0605 6.99992 4.35725 6.99992 4.66667V8.16667H3.49992C3.1905 8.16667 2.89375 8.28958 2.67496 8.50838C2.45617 8.72717 2.33325 9.02391 2.33325 9.33333V21C2.33325 21.9283 2.702 22.8185 3.35838 23.4749C4.01476 24.1313 4.90499 24.5 5.83325 24.5H20.9999C22.2376 24.5 23.4246 24.0083 24.2997 23.1332C25.1749 22.258 25.6666 21.071 25.6666 19.8333V4.66667C25.6666 4.35725 25.5437 4.0605 25.3249 3.84171C25.1061 3.62292 24.8093 3.5 24.4999 3.5ZM6.99992 21C6.99992 21.3094 6.877 21.6062 6.65821 21.825C6.43942 22.0438 6.14267 22.1667 5.83325 22.1667C5.52383 22.1667 5.22709 22.0438 5.00829 21.825C4.7895 21.6062 4.66659 21.3094 4.66659 21V10.5H6.99992V21ZM23.3333 19.8333C23.3333 20.4522 23.0874 21.0457 22.6498 21.4832C22.2122 21.9208 21.6188 22.1667 20.9999 22.1667H9.12325C9.25908 21.7925 9.3301 21.398 9.33325 21V5.83333H23.3333V19.8333ZM12.8333 15.1667H13.9999C14.3093 15.1667 14.6061 15.0437 14.8249 14.825C15.0437 14.6062 15.1666 14.3094 15.1666 14C15.1666 13.6906 15.0437 13.3938 14.8249 13.175C14.6061 12.9562 14.3093 12.8333 13.9999 12.8333H12.8333C12.5238 12.8333 12.2271 12.9562 12.0083 13.175C11.7895 13.3938 11.6666 13.6906 11.6666 14C11.6666 14.3094 11.7895 14.6062 12.0083 14.825C12.2271 15.0437 12.5238 15.1667 12.8333 15.1667ZM12.8333 19.8333H13.9999C14.3093 19.8333 14.6061 19.7104 14.8249 19.4916C15.0437 19.2728 15.1666 18.9761 15.1666 18.6667C15.1666 18.3572 15.0437 18.0605 14.8249 17.8417C14.6061 17.6229 14.3093 17.5 13.9999 17.5H12.8333C12.5238 17.5 12.2271 17.6229 12.0083 17.8417C11.7895 18.0605 11.6666 18.3572 11.6666 18.6667C11.6666 18.9761 11.7895 19.2728 12.0083 19.4916C12.2271 19.7104 12.5238 19.8333 12.8333 19.8333Z" fill="#898BA3"/>
</svg>
